<svg width="814" height="479" viewBox="0 0 814 479" fill="none" xmlns="http://www.w3.org/2000/svg">
<path d="M405.193 401.56C402.874 404.167 401.141 407.578 401.092 410.903C401.087 411.223 401.098 411.543 401.126 411.862C401.908 420.856 415.795 426.394 425.88 425.174C431.579 424.487 437.737 421.443 437.594 418.894C437.429 416.07 429.648 416.99 423.062 410.796C421.302 409.152 419.863 407.194 418.82 405.023C416.892 401.075 416.638 397.78 413.903 397.157C412.183 396.756 410.001 397.539 407.932 399.042L405.193 401.56Z" fill="#010101"/>
<path d="M367.03 410.979C364.713 413.586 362.977 416.996 362.932 420.321C362.932 420.645 362.932 420.966 362.962 421.284C363.741 430.275 377.631 435.812 387.716 434.596C393.416 433.908 399.574 430.865 399.43 428.316C399.268 425.492 391.484 426.409 384.898 420.214C383.137 418.572 381.699 416.614 380.66 414.442C378.728 410.493 378.475 407.202 375.743 406.578C374.016 406.178 371.837 406.957 369.768 408.461L367.03 410.979Z" fill="#010101"/>
<path d="M446.529 447.63C448.873 450.213 450.643 453.602 450.725 456.93C450.725 457.236 450.725 457.572 450.701 457.89C450.013 466.899 436.179 472.559 426.075 471.452C420.37 470.823 414.181 467.843 414.301 465.294C414.432 462.468 422.213 463.305 428.749 457.043C430.488 455.384 431.902 453.415 432.918 451.237C434.81 447.264 435.03 443.979 437.756 443.321C439.476 442.906 441.661 443.664 443.745 445.155L446.529 447.63Z" fill="#010101"/>
<path d="M572.267 396.707C574.611 399.289 576.38 402.682 576.463 406.007C576.471 406.327 576.463 406.647 576.438 406.966C575.751 415.975 561.916 421.635 551.813 420.532C546.107 419.902 539.919 416.92 540.038 414.371C540.169 411.544 547.95 412.385 554.487 406.12C556.225 404.46 557.639 402.491 558.655 400.313C560.547 396.34 560.767 393.055 563.493 392.398C565.213 391.983 567.402 392.74 569.486 394.232L572.267 396.707Z" fill="#010101"/>
<path d="M607.735 414.029C610.079 416.608 611.848 420.001 611.93 423.329C611.93 423.634 611.93 423.967 611.909 424.288C611.218 433.288 597.384 438.957 587.28 437.851C581.575 437.221 575.386 434.239 575.506 431.69C575.637 428.857 583.418 429.703 589.955 423.439C591.693 421.779 593.107 419.81 594.123 417.632C596.015 413.659 596.235 410.374 598.964 409.717C600.681 409.301 602.869 410.059 604.954 411.551L607.735 414.029Z" fill="#010101"/>
<path d="M609.395 411.777C611.739 414.36 613.505 417.749 613.588 421.077C613.597 421.397 613.59 421.717 613.566 422.037C612.876 431.046 599.044 436.706 588.938 435.599C583.235 434.97 577.044 431.99 577.163 429.441C577.294 426.605 585.075 427.452 591.612 421.19C593.351 419.531 594.766 417.562 595.783 415.384C597.672 411.411 597.892 408.125 600.621 407.468C602.338 407.053 604.527 407.811 606.611 409.302L609.395 411.777Z" fill="#010101"/>
<path d="M475.742 437.38C478.884 438.908 481.796 441.374 483.119 444.427C483.248 444.721 483.361 445.021 483.459 445.326C486.209 453.929 475.513 464.38 465.715 467.134C460.19 468.689 453.335 468.246 452.489 465.841C451.548 463.161 459.081 461.031 462.791 452.77C463.778 450.576 464.349 448.218 464.475 445.815C464.737 441.426 463.711 438.294 466.003 436.647C467.442 435.617 469.752 435.501 472.243 436.091L475.742 437.38Z" fill="#010101"/>
<path d="M492.813 171.001C491.15 167.517 487.202 168.009 486.059 164.43C485.949 164.076 485.414 162.395 486.151 160.83C486.857 159.302 488.015 159.513 488.596 158.309C489.714 155.929 486.233 153.01 487.373 151.421C487.657 151.03 488.507 150.755 490.212 150.198C491.823 149.679 492.003 149.838 492.37 149.477C493.253 148.622 492.465 147.457 493.091 145.159C493.397 144.001 493.702 142.919 494.53 142.546C496.08 141.852 497.773 144.404 499.393 143.717C499.985 143.466 500.328 142.739 501.015 141.287C502.009 139.166 501.746 138.509 502.455 137.956C503.503 137.137 505.492 137.513 506.773 138.31C508.301 139.273 508.383 140.572 510.917 142.812C511.485 143.316 511.922 143.637 512.356 143.53C513.145 143.341 513.01 141.978 514.156 140.474C514.508 140.013 515.189 139.117 516.317 138.763C517.071 138.551 517.869 138.558 518.619 138.781C519.369 139.004 520.04 139.436 520.556 140.025C521.882 141.694 520.907 144.062 521.723 144.346C522.239 144.52 522.606 143.567 524.168 142.726C524.684 142.442 526.176 141.654 527.948 141.914C529.039 142.07 530.05 142.575 530.83 143.353C533.15 145.853 530.83 149.917 532.63 151.097C533.501 151.675 534.158 150.767 537.312 151.097C539.43 151.32 540.001 151.818 540.191 151.995C541.086 152.851 541.376 154.318 541.107 155.51C540.478 158.147 537.177 158.758 537.416 160.008C537.532 160.62 538.333 160.62 540.747 161.808C542.886 162.86 543.953 163.382 544.527 164.33C545.423 165.806 545.383 168.107 544.258 169.274C543.134 170.442 541.202 170.078 541.107 170.717C541.013 171.355 543.002 171.615 543.986 173.418C544.105 173.632 544.793 174.894 544.341 176.117C543.73 177.785 541.419 178.256 540.921 178.369C538.886 178.791 537.703 178.014 537.138 178.72C536.832 179.096 536.976 179.781 537.229 181.165C537.483 182.55 537.685 182.715 537.859 183.686C538.097 185.025 538.342 186.394 537.651 187.164C536.704 188.222 534.739 187.28 534.167 188.277C533.88 188.778 534.323 189.105 534.167 190.349C534.091 190.96 533.99 191.825 533.449 192.329C532.416 193.298 530.799 191.99 529.397 192.778C528.336 193.371 528.404 194.581 527.777 196.198C526.795 198.375 525.203 200.22 523.193 201.509C519.917 203.618 516.164 202.994 513.2 202.499C509.831 201.919 506.634 200.598 503.839 198.63C503.182 198.166 496.56 193.377 494.387 185.126C493.748 182.528 493.357 179.876 493.219 177.205C492.938 172.969 493.549 172.538 492.813 171.001Z" fill="#010101"/>
<path d="M545.197 227.501C547.336 229.246 549.573 232.125 552.174 235.478C555.101 239.255 555.23 240.153 561.489 250.452C563.973 254.541 566.855 258.817 569.993 265.24C570.14 265.546 570.379 266.032 570.647 266.686C571.648 269.12 572.193 271.717 572.255 274.347V274.653C572.255 274.934 572.255 275.221 572.234 275.509C572.24 275.598 572.24 275.688 572.234 275.778C572.056 278.834 571.243 279.683 570.819 280.032C570.394 280.37 569.886 280.59 569.349 280.667C568.044 280.893 565.969 280.594 562.515 279.02C559.942 277.846 557.512 276.38 555.273 274.653C552.543 272.563 550.163 270.216 547.535 267.676L545.976 266.173C544.69 264.95 543.559 263.862 542.562 262.921" stroke="black" stroke-miterlimit="10"/>
<path d="M486.215 444.482C485.58 445.17 484.929 445.473 483.743 446.105C482.667 446.68 476.363 449.919 469.016 447.817C467.431 447.335 465.909 446.665 464.484 445.821C453.558 439.098 448.443 405.921 448.443 405.921C446.484 393.205 442.331 375.7 432.628 354.632C432.628 354.632 424.266 339.159 427.824 329.878C428.377 328.436 429.639 325.126 432.23 322.088C433.272 320.861 434.471 319.777 435.797 318.864C436.295 318.524 436.811 318.211 437.343 317.926C439.861 316.584 442.266 316.138 448.281 315.9C453.253 315.707 457.388 315.548 460.81 315.548C460.862 316.058 460.964 316.56 461.116 317.049C461.375 317.909 461.834 318.697 462.455 319.347L462.549 319.442L462.598 319.491C462.678 319.567 462.757 319.643 462.843 319.711L462.98 319.821L463.121 319.928L463.225 319.998C463.338 320.074 463.455 320.143 463.576 320.206L463.665 320.252L463.778 320.304L463.894 320.355C463.934 320.355 464.019 320.41 464.086 320.435L464.285 320.505L464.441 320.557C464.536 320.588 464.634 320.615 464.747 320.643C464.86 320.67 464.875 320.679 464.945 320.695L465.122 320.734C465.401 320.799 465.712 320.857 466.039 320.912L466.217 320.939L466.66 320.997L467.121 321.049L467.683 321.107C468.533 321.184 469.517 321.254 470.718 321.321L464.695 350.207H440.381V360.38H468.998C468.643 374.701 470.853 385.583 472.882 392.793C477.096 407.767 482.465 421.654 482.465 421.654C486.029 430.819 490.158 440.207 486.215 444.482Z" fill="#FFCF01" stroke="black" stroke-miterlimit="10"/>
<path d="M345.989 129.516C346.924 129.085 348.434 128.382 349.635 126.881C352.08 123.783 350.64 120.396 352.08 119.794C353.712 119.107 357.024 122.964 358.763 125.87C359.68 127.398 360.863 129.375 361.193 132.15C361.935 138.342 358.039 145.132 354.916 145.114C353.082 145.114 352.309 142.712 349.794 142.819C348.504 142.871 347.792 143.534 346.551 144.304C346.551 144.304 342.667 146.712 337.887 147.082C332.766 147.476 329.529 144.457 328.594 145.652C327.919 146.516 329.752 147.913 329.404 150.514C329.098 152.861 327.421 153.026 326.568 155.51C325.345 159.11 327.537 162.539 326.702 162.927C325.914 163.315 324.34 160.052 322.381 160.363C321.229 160.538 320.334 161.891 320.221 163.062C320.022 165.131 322.259 167.035 324.138 167.646C325.666 168.159 326.366 167.646 326.965 168.321C327.775 169.204 326.877 170.522 326.693 173.443C326.504 176.499 327.304 178.11 326.831 178.305C326.357 178.501 325.339 177.022 322.778 173.04C317.932 165.507 317.91 165.008 316.162 162.912C313.62 159.856 312.895 159.981 311.975 157.915C311.67 157.191 310.059 153.389 311.569 149.679C312.617 147.115 313.971 147.467 315.08 144.683C316.141 142.042 315.114 141.217 316.162 138.473C316.92 136.565 318.174 134.894 319.793 133.632C320.627 133.021 322.063 132.141 327.76 131.472C332.726 130.888 339.012 130.68 339.642 130.662C341.763 130.598 343.703 130.576 345.989 129.516Z" fill="#1831A4"/>
<path d="M359.655 198.386C361.541 199.043 363.527 200.113 365.229 201.036C370.351 203.838 373.401 206.61 380.815 213.19C388.571 220.06 391.377 222.468 393.886 222.425" stroke="black" stroke-miterlimit="10"/>
<path d="M358.889 226.673C362.767 229.149 368.616 232.278 377.384 238.109C389.244 246.003 390.375 248.157 394.397 247.824C397.554 247.57 399.399 246.036 401.792 243.265" stroke="black" stroke-miterlimit="10"/>
<path d="M411.895 231.835C412.747 230.989 413.664 230.111 414.646 229.2C424.327 220.277 432.435 216.044 431.249 212.795C430.943 211.943 430.189 211.677 428.991 211.286C426.881 210.664 424.901 209.664 423.147 208.337C420.816 206.598 419.731 205.076 418.695 204.119C418.107 203.505 417.312 203.131 416.464 203.071C415.403 203.004 414.383 203.377 409.982 207.325C404.744 212.031 400.866 216.237 400.866 216.237C399.21 218.037 398.115 219.293 397.354 220.151" stroke="black" stroke-miterlimit="10"/>
<path d="M333.633 249.657C330.357 247.157 331.023 242.867 330.394 234.264C329.602 223.531 328.783 212.334 322.091 204.287C321.32 203.37 314.368 195.199 307.914 196.996C304.09 198.053 302.184 202.117 301.633 203.273C299.439 207.93 300.035 212.682 303.045 223.137C305.744 232.476 308.733 240.663 313.579 251.696C319.444 265.038 321.29 267.214 324.111 268.504C328.527 270.521 330.715 267.621 341.328 267.092C358.109 266.236 363.842 269.002 367.253 264.864C371.225 260.057 369.505 250.265 366.241 249.064C365.123 248.652 364.322 249.434 362.192 250.287C358.219 251.861 355.915 251.158 346.606 250.69C335.785 250.128 335.247 250.892 333.633 249.657Z" stroke="black" stroke-miterlimit="10"/>
<path d="M429 211.285C431.5 209.452 434.972 206.793 440.173 203.071C443.076 200.993 445.27 199.48 446.047 196.589C447.07 192.784 444.901 189.313 444.635 188.891C443.855 187.687 442.532 185.636 440.787 185.651C438.773 185.67 438.388 188.402 434.91 191.525C431.974 194.153 428.059 195.941 427.014 194.969C426.271 194.282 427.585 192.781 427.014 190.107C426.58 188.096 425.18 185.917 424.175 186.058C423.258 186.186 423.135 188.219 421.543 194.969C420.73 198.404 420.321 200.122 419.924 201.246C419.572 202.227 419.164 203.186 418.701 204.119" stroke="black" stroke-miterlimit="10"/>
<path d="M367.995 250.712C369.086 249.939 370.605 248.936 372.723 247.631C377.05 244.969 378.291 244.477 379.003 245C379.715 245.523 379.727 246.879 379.409 247.824C378.581 250.296 375.198 250.758 375.357 251.674C375.467 252.322 377.16 252.09 379.205 253.294C380.733 254.211 380.983 255.039 381.839 255.739C385.347 258.563 392.196 253.184 393.993 255.128C395.197 256.439 393.449 260.338 391.358 262.624C389.488 264.666 387.334 265.436 386.093 265.864C381.301 267.514 377.032 266.38 373.737 265.46C371.552 264.849 369.651 264.317 368.13 263.556" stroke="black" stroke-miterlimit="10"/>
<path d="M397.208 238.606C395.575 238.253 393.96 237.817 392.371 237.301C387.582 235.804 385.186 235.052 383.459 233.857C381.733 232.662 377.94 230.034 376.98 225.352C376.369 222.348 376.867 218.201 378.6 217.654C380.599 217.022 382.24 221.798 388.12 223.733C388.471 223.846 392.747 225.212 393.789 223.733C393.906 223.539 393.976 223.321 393.994 223.096C394.012 222.87 393.977 222.644 393.893 222.434C393.538 221.166 392.365 219.485 392.976 217.453C393.504 215.686 395.222 214.115 396.215 214.415C397.288 214.72 396.756 217.015 397.361 220.151C397.611 221.466 398.043 222.739 398.645 223.934C399.653 225.93 400.249 225.945 401.481 228.592C401.799 229.273 402.079 229.97 402.321 230.682" stroke="black" stroke-miterlimit="10"/>
<path d="M628.473 217.181C627.803 215.771 626.742 214.584 625.417 213.761C625.133 218.501 624.412 220.704 625.313 221.095C626.163 221.465 627.168 219.955 628.819 218.22C628.74 217.862 628.624 217.514 628.473 217.181ZM629.674 225.762C629.693 226.642 629.712 227.525 629.732 228.411C629.732 227.721 629.732 226.819 629.674 225.762ZM691.929 180.453C693.668 177.733 697.561 171.633 696.253 165.598C695.015 159.92 689.514 155.873 688.42 155.067C685.312 152.784 682.574 152.084 681.129 148.857C680.307 147.023 680.313 145.287 680.319 143.995C680.337 139.304 682.482 138.041 681.939 134.808C681.902 134.591 681.282 131.208 678.699 129.686C674.787 127.373 671.038 132.055 666.273 130.496C661.821 129.041 662.954 124.253 657.903 121.044C653.319 118.134 646.366 118.254 641.706 121.044C636.083 124.405 637.831 129.231 631.716 132.926C626.737 135.93 623.59 133.946 620.913 137.25C618.086 140.74 618.969 146.256 619.293 148.322C620.054 153.114 622.043 154.287 621.738 158.584C621.643 159.852 621.432 162.557 619.577 164.794C618.388 166.227 617.258 166.582 611.479 168.846C604.807 171.456 604.358 171.746 603.839 172.208C601.311 174.439 599.713 178.213 599.866 181.801C600.138 187.806 605.192 189.915 604.19 193.683C603.56 196.036 601.134 196.901 597.436 198.805C594.31 200.421 585.291 205.082 581.502 209.877C575.983 216.863 577.792 228.916 582.043 236.614C586.706 245.052 594.386 248.386 601.488 251.466C605.599 253.251 616.09 257.804 628.492 255.91C629.568 251.528 630.095 247.03 630.062 242.518C628.749 243.958 627.341 245.309 625.848 246.561C621.533 250.229 619.32 250.977 617.227 250.684C613.068 250.088 610.87 245.489 610.736 245.183C609.367 242.127 610.076 238.915 611.549 232.623C614.134 221.566 614.636 219.518 615.192 217.037C617.111 208.44 618.067 204.143 618.229 200.84C618.498 195.409 617.875 192.106 620.259 188.28C621.481 186.287 621.985 186.678 624.231 183.421C627.449 178.769 627.184 175.307 629.026 175.05C630.347 174.873 631.957 176.364 632.082 177.681C632.131 178.323 631.777 178.598 630.667 180.316C629.139 182.66 627.957 184.508 628.51 185.85C628.831 186.629 629.402 186.422 630.533 187.742C630.82 188.075 631.703 189.102 632.018 190.306C632.581 192.427 631.23 194.465 630.185 195.978C628.449 198.523 627.498 198.365 626.337 200.03C624.782 202.261 625.39 204.119 625.512 208.859C626.884 208.116 628.663 207.145 630.386 205.296C634.014 201.408 632.409 198.951 636.058 195.58C638.628 193.2 642.809 191.287 645.648 192.549C646.693 190.783 648.475 188.744 649.034 185.141C649.499 182.137 648.774 180.218 648.423 178.47C644.376 176.67 641.098 173.492 639.173 169.503C637.249 165.513 636.802 160.97 637.912 156.682C639.022 152.394 641.618 148.638 645.237 146.084C648.856 143.53 653.264 142.342 657.676 142.733C662.089 143.123 666.219 145.067 669.334 148.217C672.448 151.367 674.344 155.519 674.684 159.936C675.024 164.352 673.786 168.746 671.19 172.336C668.595 175.926 664.81 178.478 660.51 179.539C659.575 182.54 659.027 186.015 660.146 189.279C660.867 191.388 661.955 192.448 662.465 193.521C667.086 192.026 667.425 191.598 669.021 191.8C673.137 192.332 675.86 195.819 678.204 198.829C679.909 201.017 682.556 205.021 684.148 211.252C685.098 214.986 685.3 218.91 685.111 224.426C685.337 224.019 685.556 223.588 685.768 223.134C687.632 219.072 691.217 207.618 687.656 198.016C686.969 196.161 685.551 193.126 686.306 189.377C687.06 185.627 689.181 184.768 691.929 180.453Z" fill="#1831A4"/>
<path d="M264.158 290.22H255.246V437.735H264.158V290.22Z" stroke="#233D63" stroke-miterlimit="10"/>
<path d="M725.967 291.094H717.056V438.609H725.967V291.094Z" stroke="#233D63" stroke-miterlimit="10"/>
<path d="M215.279 428.078H182.869L176.391 383.497H220.972L215.279 428.078Z" stroke="#233D63" stroke-miterlimit="10"/>
<path d="M180.711 340.327C178.394 334.01 170.516 312.548 158.026 312.242C154.053 312.144 150.08 314.198 147.763 317.104C141.719 324.726 147.574 337.784 149.924 343.029C158.203 361.49 177.016 377.932 183.751 374.02C190.322 370.203 183.55 348.068 180.711 340.327Z" fill="#1831A4" stroke="white" stroke-miterlimit="10"/>
<path d="M189.621 345.578C188.961 342.601 186.443 330.869 186.584 314.791C186.682 303.808 187.956 297.903 191.446 292.711C192.849 290.627 195.758 286.419 199.746 286.434C200.608 286.434 203.456 286.642 207.038 291.293C208.746 293.512 213.315 300.244 212.912 320.866C212.673 333.091 210.824 343.298 208.049 352.463C205.424 361.139 202.769 369.913 199.34 369.882C195.031 369.846 191.92 355.849 189.621 345.578Z" fill="#1831A4" stroke="white" stroke-miterlimit="10"/>
<path d="M214.94 370.493C213.256 352.887 218.586 339.297 218.586 339.297C220.38 334.728 223.457 328.09 229.12 321.676C232.705 317.614 235.498 315.719 238.835 315.197C239.719 315.059 243.673 314.439 246.732 316.817C250.023 319.371 250.265 323.827 250.378 326.74C250.491 329.566 250.299 335.397 244.507 346.604C242.979 349.525 237.173 360.411 226.073 369.692C220.899 374.023 218.128 375.04 216.554 374.151C215.258 373.396 215.035 371.486 214.94 370.493Z" fill="#1831A4" stroke="white" stroke-miterlimit="10"/>
<path d="M210.832 383.496C212.55 380.481 214.345 377.242 216.22 373.781C217.974 370.535 219.775 367.105 221.623 363.488C227.487 351.998 229.596 346.75 235.195 335.932C238.199 330.126 241.814 323.485 246.083 316.236" fill="#FFCF01"/>
<path d="M210.832 383.496C212.55 380.481 214.345 377.242 216.22 373.781C217.974 370.535 219.775 367.105 221.623 363.488C227.487 351.998 229.596 346.75 235.195 335.932C238.199 330.126 241.814 323.485 246.083 316.236" stroke="white" stroke-miterlimit="10"/>
<path d="M199.647 286.318C199.469 288.763 199.292 291.562 199.145 294.621C198.058 316.45 199.145 330.786 199.552 344.434C199.754 351.179 199.858 359.69 199.552 369.742C199.432 374.044 199.228 378.628 198.941 383.494" fill="#FFCF01"/>
<path d="M199.647 286.318C199.469 288.763 199.292 291.562 199.145 294.621C198.058 316.45 199.145 330.786 199.552 344.434C199.754 351.179 199.858 359.69 199.552 369.742C199.432 374.044 199.228 378.628 198.941 383.494" stroke="white" stroke-miterlimit="10"/>
<path d="M152.955 313.241C154.324 316.064 155.956 319.435 157.823 323.179C164.32 336.268 169.131 345.259 172.202 351.132C175.273 357.006 179.209 364.628 183.815 373.979C185.29 376.976 186.832 380.149 188.442 383.496" fill="#FFCF01"/>
<path d="M152.955 313.241C154.324 316.064 155.956 319.435 157.823 323.179C164.32 336.268 169.131 345.259 172.202 351.132C175.273 357.006 179.209 364.628 183.815 373.979C185.29 376.976 186.832 380.149 188.442 383.496" stroke="white" stroke-miterlimit="10"/>
<path d="M587.905 275.515L586.114 271.236L564.471 214.596L520.464 213.984C520.464 214.03 520.446 214.076 520.434 214.122" stroke="#233D63" stroke-miterlimit="10"/>
<path d="M593.72 271.236H586.113" stroke="black" stroke-miterlimit="10"/>
<path d="M414.92 1.43994H203.748C200.645 1.44075 197.668 2.67427 195.474 4.86922C193.28 7.06418 192.047 10.0408 192.047 13.1446V57.2554C192.047 60.3588 193.28 63.3351 195.474 65.5296C197.669 67.7241 200.645 68.9569 203.748 68.9569H248.651L275.238 99.2117V79.2344L274.126 68.9569H414.923C418.026 68.9561 421.002 67.7229 423.196 65.5285C425.39 63.3341 426.622 60.3583 426.622 57.2554V57.2554V13.1446C426.622 10.0408 425.389 7.06418 423.195 4.86922C421.001 2.67427 418.024 1.44075 414.92 1.43994V1.43994Z" stroke="#233D63" stroke-miterlimit="10"/>
<path d="M472.631 312.211L471.632 317.009" stroke="black" stroke-miterlimit="10"/>
<path d="M637.446 272.675H637.449" stroke="black" stroke-miterlimit="10"/>
<path d="M328.976 301.408C333.472 300.798 337.933 299.958 342.343 298.89C350.621 296.888 354.872 295.809 356.844 292.934L356.926 292.814C357.158 292.47 357.362 292.109 357.537 291.733C357.984 290.738 358.2 289.654 358.167 288.563C358.139 285.572 356.743 281.785 355.239 275.53L355.037 274.677C354.585 272.733 354.121 270.554 353.699 268.106C353.632 267.737 353.568 267.373 353.506 267.009" stroke="black" stroke-miterlimit="10"/>
<path d="M351.683 250.984C351.68 247.606 352.08 244.24 352.874 240.957C354.546 234.084 356.395 233.928 358.889 226.685C359.173 225.869 359.463 224.962 359.763 223.935C362.531 214.519 364.683 207.206 360.985 200.44C360.59 199.728 360.148 199.043 359.662 198.39V198.39C356.606 194.282 351.692 191.296 346.805 190.722C341.28 190.071 340.482 193.057 333.203 192.883C326.021 192.705 323.928 189.738 319.261 191.125C316.835 191.847 314.775 193.433 312.119 197.06" stroke="black" stroke-miterlimit="10"/>
<path d="M301.917 219.027C301.679 219.968 301.523 220.674 301.428 221.096C294.934 250.284 296.343 237.77 292.517 258.364C291.258 265.149 290.307 270.799 289.608 275.515C288.501 283.008 288.031 288.139 287.967 291.712C287.857 297.894 288.966 299.434 290.087 300.489C290.483 300.853 290.931 301.155 291.417 301.384" stroke="black" stroke-miterlimit="10"/>
<path d="M477.047 360.359L559.865 360.054H561.913L566.757 308.407L566.842 307.49L568.208 292.928L568.321 291.727C568.666 288.048 569.01 284.367 569.354 280.686" stroke="#233D63" stroke-miterlimit="10"/>
<path d="M417.555 372.198C415.599 391.145 419.96 401.78 419.083 408.55C418.799 410.741 417.971 412.522 416.198 414.05C412.051 417.629 404.928 417.935 400.805 415.129C395.558 411.569 397.034 404.265 395.674 392.169C395.204 388.013 394.715 386.057 393.483 382.696C391.649 377.729 388.214 369.671 380.819 346.781C375.403 330.019 374.759 326.611 370.288 322.745C365.001 318.161 362.036 319.555 347.603 313.03C336.476 307.997 331.354 304.061 328.961 301.374C333.457 300.763 337.918 299.923 342.328 298.856C350.607 296.852 354.858 295.776 356.829 292.9L356.911 292.781C357.143 292.436 357.347 292.075 357.523 291.699C357.97 290.703 358.185 289.618 358.152 288.527C359.228 289.208 360.45 289.988 361.92 290.889C362.368 291.166 362.814 291.436 363.256 291.699C370.11 295.803 375.642 298.376 382.176 301.423C396.927 308.296 401.251 307.884 410.798 314.656C414.609 317.354 417.238 319.778 419.05 322.84C419.397 323.424 419.711 324.028 419.988 324.649C422.573 330.358 421.754 335.819 421.339 338.689C421.336 338.71 420.205 346.555 417.555 372.198Z" fill="#FFCF01" stroke="black" stroke-miterlimit="10"/>
<path d="M545.964 266.182L542.104 266.102L482.511 264.849L480.464 274.662L476.656 292.919L472.634 312.208L471.635 317.013C471.335 318.439 471.037 319.865 470.739 321.291L464.716 350.177" stroke="#233D63" stroke-miterlimit="10"/>
<path d="M615.41 283.429L615.321 283.499C614.031 284.416 610.184 282.515 610.043 280.688C609.948 279.496 611.476 278.854 615.85 275.514C617.598 274.178 619.019 273.008 620.033 272.152" stroke="black" stroke-miterlimit="10"/>
<path d="M677.465 213.058C684.463 217.505 680.576 232.183 679.485 236.309C677.862 242.421 675.692 243.338 675.179 243.429C674.522 243.524 674.277 243.252 672.544 242.476C669.996 241.33 669.941 241.742 663.89 239.53L660.278 238.216C659.666 234.817 659.171 228.898 661.778 222.587C663.12 219.345 665.653 213.208 671.108 212.068C671.872 211.912 674.843 211.393 677.465 213.058Z" stroke="black" stroke-miterlimit="10"/>
<path d="M674.253 243.273C672.777 245.093 671.443 247.024 670.265 249.049C667.264 254.223 667.31 257.175 664.788 261.811C662.139 266.701 660.779 270.673 657.295 272.95C649.716 277.898 639.124 272.085 624.956 272.097C622.695 272.097 620.039 272.149 620.039 272.149C614.153 272.272 609.496 272.544 609.496 272.544C601.244 273.033 595.218 273.794 594.099 271.321L594.063 271.227C593.451 269.637 595.074 267.504 595.517 266.866C596.291 265.759 598.133 263.77 603.622 263.015C609.175 262.251 612.044 263.626 616.784 264.237C618.752 264.521 620.75 264.539 622.722 264.289C623.821 264.14 624.905 263.894 625.962 263.556C633.045 261.383 640.664 263.528 646.688 259.702C647.776 259.015 650.242 255.298 655.134 247.897C657.714 243.988 659.816 240.755 661.247 238.561" stroke="black" stroke-miterlimit="10"/>
<path d="M630.041 242.534C628.73 243.973 627.323 245.323 625.83 246.574C621.515 250.226 619.293 250.99 617.209 250.699C613.047 250.088 610.849 245.504 610.715 245.199C609.349 242.143 610.055 238.931 611.528 232.638C614.116 221.582 614.617 219.537 615.174 217.053C617.09 208.456 618.046 204.159 618.211 200.856C618.477 195.428 617.857 192.121 620.238 188.298C621.46 186.306 621.967 186.694 624.21 183.436C627.425 178.785 627.159 175.322 629.002 175.066C630.322 174.888 631.936 176.38 632.043 177.7C632.095 178.339 631.737 178.617 630.631 180.331C629.103 182.675 627.914 184.524 628.47 185.869C628.791 186.648 629.363 186.437 630.494 187.757C630.781 188.09 631.664 189.12 631.982 190.321C632.538 192.442 631.187 194.484 630.148 195.993C628.412 198.539 627.462 198.38 626.301 200.046C624.745 202.277 625.35 204.138 625.476 208.878C625.476 209.522 625.497 210.222 625.476 210.983C625.476 211.998 625.427 212.924 625.375 213.776C625.09 218.513 624.369 220.717 625.271 221.111C626.12 221.481 627.126 219.971 628.776 218.235" stroke="black" stroke-miterlimit="10"/>
<path d="M625.402 213.764C626.728 214.586 627.789 215.772 628.458 217.181C628.604 217.516 628.716 217.865 628.792 218.223C628.966 218.981 629.097 220.002 629.29 221.514C629.372 222.125 629.565 223.699 629.659 225.762C629.708 226.823 629.721 227.718 629.718 228.403" stroke="black" stroke-miterlimit="10"/>
<path d="M625.968 263.56C628.716 256.896 630.101 249.748 630.041 242.54C629.938 237.832 629.836 233.127 629.736 228.424L629.678 225.784L629.641 224.076" stroke="black" stroke-miterlimit="10"/>
<path d="M625.488 208.866C626.86 208.12 628.642 207.148 630.363 205.299C633.993 201.415 632.386 198.955 636.035 195.584C638.608 193.204 642.785 191.29 645.628 192.553L645.759 192.614C647.388 193.408 647.033 194.557 648.726 195.584C650.493 196.645 652.638 196.467 659.261 194.505C660.498 194.136 661.543 193.809 662.43 193.524C667.05 192.027 667.39 191.599 668.985 191.804C673.101 192.336 675.827 195.823 678.168 198.833C679.874 201.024 682.52 205.024 684.112 211.256C685.063 214.99 685.267 218.914 685.075 224.433C684.956 227.74 684.702 231.618 684.378 236.373C683.914 243.292 683.684 243.24 683.849 245.556C684.415 253.939 687.572 256.714 688.712 263.382C689.384 267.325 689.323 271.762 688.369 275.533C687.927 277.466 687.127 279.298 686.01 280.936C685.629 281.473 685.193 281.97 684.711 282.418" stroke="black" stroke-miterlimit="10"/>
<path d="M648.387 178.464C648.753 180.215 649.478 182.131 649.013 185.138C648.454 188.741 646.669 190.789 645.627 192.546" stroke="black" stroke-miterlimit="10"/>
<path d="M660.473 179.537C659.541 182.538 658.991 186.012 660.109 189.276C660.83 191.385 661.918 192.445 662.429 193.515" stroke="black" stroke-miterlimit="10"/>
<path d="M470.306 274.662C470.248 274.946 470.193 275.234 470.138 275.515C468.916 281.627 467.556 286.996 466.251 291.712L465.918 292.913H242.186V274.662H470.306Z" fill="#233D63"/>
<path d="M326.69 173.513C327.179 177.181 331.499 178.951 333.597 179.378C345.821 182.574 360.878 169.345 359.656 155.565C359.364 152.533 358.351 146.101 356.64 144.634" stroke="black" stroke-miterlimit="10"/>
<path d="M504.277 198.997C516.35 198.997 526.137 189.804 526.137 178.464C526.137 167.123 516.35 157.93 504.277 157.93C492.204 157.93 482.417 167.123 482.417 178.464C482.417 189.804 492.204 198.997 504.277 198.997Z" stroke="black" stroke-miterlimit="10"/>
<path d="M339.293 192.085C338.212 189.914 337.695 187.504 337.793 185.081C337.921 182.786 338.639 181.135 339.321 179.742" stroke="black" stroke-miterlimit="10"/>
<path d="M325.63 191.519C325.887 190.105 326.278 188.314 326.751 185.967C327.564 181.942 328.066 179.042 328.457 176.924" stroke="black" stroke-miterlimit="10"/>
<path d="M522.099 214.21C522.104 214.146 522.104 214.082 522.099 214.018C521.922 210.656 520.211 206.86 517.928 202.998" stroke="black" stroke-miterlimit="10"/>
<path d="M497.828 198.087C499.976 203.383 500.963 209.078 500.722 214.788" stroke="black" stroke-miterlimit="10"/>
<path d="M693.298 304.354H686.284V367.965H693.298V304.354Z" stroke="#233D63" stroke-miterlimit="10"/>
<path d="M712.859 298.016H638.524V312.232H712.859V298.016Z" fill="#233D63"/>
<path d="M333.261 322.944H326.247V386.552H333.261V322.944Z" stroke="#233D63" stroke-miterlimit="10"/>
<path d="M352.823 316.606H278.488V330.823H352.823V316.606Z" fill="#233D63"/>
<path d="M511.461 360.044L497.948 430.4L489.675 428.811L502.883 360.044H511.461Z" fill="#233D63"/>
<path d="M531.514 360.044L548.396 427.344L540.224 429.392L522.832 360.044H531.514Z" fill="#233D63"/>
<path d="M642.119 299.688C641.978 302.689 637.971 304.831 629.965 309.003C610.537 319.127 603.377 315.866 595.936 323.586C590.74 328.974 589.494 335.462 587.027 348.297C585.435 356.548 586.248 358.144 585.001 373.008C584.543 378.457 584.039 382.962 583.501 386.699C581.361 401.674 578.675 404.241 576.493 405.423C573.092 407.257 568.083 407.202 564.339 405.017C555.547 399.88 560.422 386.846 559.862 360.051H561.91L566.751 308.404L566.839 307.487C571.527 304.773 578.911 301.711 592.605 294.162C598.255 291.048 601.229 289.658 603.203 287.54C605.785 284.768 608.206 280.743 610.284 281.3C611.201 281.55 611.787 282.629 613.896 283.188C614.396 283.32 614.908 283.403 615.424 283.436H615.455C616.457 283.524 618.997 283.94 624.012 284.765C628.351 285.474 630.518 285.826 631.432 286.336C632.449 286.895 633.134 287.748 636.627 291.718C640.279 295.849 642.195 297.915 642.119 299.688Z" fill="#FFCF01" stroke="black" stroke-miterlimit="10"/>
<path d="M684.647 312.242C678.15 322.165 668.755 326.336 665.748 327.635C653.237 333.005 638.708 332.58 627.129 332.219C618.462 331.962 615.978 331.177 613.352 333.301C607.809 337.787 610.782 347.848 613.352 367.058C616.781 392.695 619.079 411.236 610.908 416.752C606.431 419.775 599.671 418.298 595.511 416.211C590.179 413.531 586.872 408.715 583.48 386.69C581.988 376.975 580.479 363.941 578.767 346.265C576.371 321.45 576.225 314.824 581.197 309.806C589.732 301.182 606.657 304 610.636 293.872C610.691 293.734 610.88 292.879 611.247 291.711C612.546 287.433 613.386 284.591 615.324 283.491C617.261 282.39 619.602 283.316 620.861 283.772C627.099 286.015 633.831 286.501 640.291 287.968C647.369 289.572 652.821 288.998 661.072 288.124C669.168 287.264 677.114 285.337 684.705 282.394C686.731 283.592 688.392 285.32 689.512 287.39C690.216 288.744 690.694 290.203 690.927 291.711C692.317 300.531 685.994 310.185 684.647 312.242Z" fill="#FFCF01" stroke="black" stroke-miterlimit="10"/>
<path d="M735.893 274.662V292.919H568.196L568.309 291.718L569.345 280.676C569.883 280.597 570.389 280.378 570.815 280.041C571.243 279.686 572.038 278.818 572.227 275.787C572.227 275.695 572.227 275.609 572.227 275.515C572.239 275.227 572.246 274.943 572.246 274.662H735.893Z" fill="#233D63"/>
<path d="M402.425 341.137C401.542 346.375 400.726 350.678 399.98 354.366C397.377 366.93 395.396 372.296 393.498 382.723C393.416 383.163 393.336 383.616 393.257 384.077C389.309 406.918 392.035 417.917 384.346 422.155C380.813 424.099 375.031 424.655 371.113 421.886C356.942 411.884 367.831 359.103 368.952 353.831C369.658 350.5 371.281 343.358 367.602 339.774C364.139 336.412 358.464 338.631 348.834 338.967C340.753 339.018 332.706 337.927 324.93 335.724C318.702 333.928 301.6 329.001 294.55 314.253C294.245 313.593 291.534 307.768 291.424 301.378C294.981 303.114 302.279 302.906 315.209 302.505C319.818 302.374 324.417 301.998 328.986 301.378C333.483 300.768 337.945 299.928 342.356 298.86C350.635 296.858 354.885 295.779 356.857 292.903C360.753 295.293 364.002 299.391 379.49 306.827C392.823 313.244 398.4 314.024 401.903 320.331C402.928 322.155 403.566 324.172 403.776 326.254C404.167 329.946 403.562 334.444 402.425 341.137Z" fill="#FFCF01" stroke="black" stroke-miterlimit="10"/>
<path d="M434.567 372.378C439.118 389.853 436.184 378.836 440.163 395.085C443.118 407.144 445.74 414.194 448.616 425.48C448.616 425.48 449.062 427.069 451.914 440.051C453.976 449.445 454.377 451.82 453.078 453.803C452.459 454.708 451.617 455.438 450.633 455.921C446.896 457.88 440.872 457.568 437.238 456.704C435.1 456.2 433.072 455.309 431.255 454.075C423.771 449.012 419.596 438.273 416.063 424.481C415.33 421.623 414.624 418.638 413.924 415.542C412.653 409.931 411.397 403.962 410.009 397.786C407.219 385.363 403.915 372.073 398.943 359.045C398.558 358.026 398.164 357.025 397.761 356.041C396.171 352.108 390.897 339.447 396.407 331.88C398.295 329.288 401.4 327.58 403.741 326.26C409.548 322.999 414.774 322.107 418.187 321.557C425.503 320.377 430.967 319.497 435.765 318.84C440.432 318.204 444.472 317.782 448.977 317.51C452.32 317.306 456.397 317.116 461.088 317.024C461.347 317.885 461.806 318.672 462.426 319.323L462.521 319.417L462.57 319.466C462.648 319.544 462.731 319.618 462.817 319.686C462.859 319.726 462.904 319.763 462.952 319.796L463.092 319.903L463.196 319.973C463.31 320.049 463.427 320.118 463.548 320.181L463.636 320.227C463.673 320.249 463.713 320.264 463.75 320.282L463.866 320.331C463.905 320.349 463.991 320.386 464.058 320.411C464.125 320.435 464.19 320.459 464.26 320.481L464.413 320.533L464.718 320.621L464.917 320.67L465.094 320.713C465.375 320.774 465.684 320.832 466.011 320.887L466.188 320.915C466.332 320.939 466.494 320.954 466.631 320.973L467.096 321.025L467.655 321.083C468.508 321.159 469.504 321.23 470.693 321.297L464.666 350.182H440.359V356.197C434.882 355.375 433.807 353.831 432.605 354.632C430.2 356.236 432.08 362.795 434.567 372.378Z" fill="#FFCF01" stroke="black" stroke-miterlimit="10"/>
<path d="M440.39 356.2V360.359H465.822H477.044V360.044" stroke="black" stroke-miterlimit="10"/>
<path d="M699.009 97.7755H583.341C582.618 97.7779 581.9 97.6374 581.231 97.362C580.561 97.0867 579.953 96.6819 579.44 96.1708C578.927 95.6598 578.52 95.0525 578.243 94.3839C577.965 93.7153 577.822 92.9985 577.822 92.2746V18.2514C577.822 16.7924 578.402 15.3933 579.433 14.3617C580.465 13.33 581.864 12.7505 583.323 12.7505H741.497C742.956 12.7505 744.355 13.33 745.387 14.3617C746.419 15.3933 746.998 16.7924 746.998 18.2514V92.2593C747 92.983 746.859 93.7 746.584 94.3691C746.308 95.0383 745.904 95.6465 745.392 96.1589C744.881 96.6713 744.274 97.0779 743.606 97.3553C742.938 97.6327 742.221 97.7755 741.497 97.7755H722.171" stroke="#233D63" stroke-miterlimit="10" stroke-linecap="round"/>
<path d="M665.185 57.1455H656.188V66.1425H665.185V57.1455Z" stroke="#233D63" stroke-miterlimit="10"/>
<path d="M656.188 30.4448H723.522" stroke="#233D63" stroke-miterlimit="10"/>
<path d="M656.188 44.9551H718.587" stroke="#233D63" stroke-miterlimit="10"/>
<path d="M658.658 72.5264H721.056" stroke="#233D63" stroke-miterlimit="10"/>
<path d="M668.633 64.981H723.232" stroke="#233D63" stroke-miterlimit="10"/>
<path d="M656.188 37.9902H711.332" stroke="#233D63" stroke-miterlimit="10"/>
<path d="M334.327 24.7915H401.661" stroke="#233D63" stroke-miterlimit="10" stroke-linecap="round"/>
<path d="M334.486 39.3042H396.884" stroke="#233D63" stroke-miterlimit="10" stroke-linecap="round"/>
<path d="M334.486 32.3398H389.626" stroke="#233D63" stroke-miterlimit="10" stroke-linecap="round"/>
<path d="M334.639 45.8501H389.779" stroke="#233D63" stroke-miterlimit="10" stroke-linecap="round"/>
<path d="M668.633 58.5815H718.587" stroke="#233D63" stroke-miterlimit="10"/>
<path d="M619.62 31.2979C625.202 31.5741 630.491 33.874 634.5 37.7675" stroke="#233D63" stroke-miterlimit="10" stroke-linecap="round"/>
<path d="M597.075 63.0649C599.394 68.7326 603.87 73.247 609.517 75.6151C615.165 77.9832 621.521 78.011 627.189 75.6925C627.785 75.4511 628.372 75.1821 628.944 74.8887" stroke="#233D63" stroke-miterlimit="10" stroke-linecap="round"/>
<path d="M596.514 61.5094C595.396 58.0848 595.096 54.4462 595.637 50.8847C596.177 47.3232 597.544 43.9378 599.628 40.9992C601.711 38.0606 604.454 35.6504 607.635 33.9615C610.817 32.2726 614.35 31.3519 617.952 31.2729" stroke="#233D63" stroke-miterlimit="10" stroke-linecap="round"/>
<path d="M635.82 39.1636C638.013 41.6714 639.636 44.6244 640.579 47.8194C641.521 51.0144 641.76 54.3756 641.28 57.6719C640.8 60.9682 639.611 64.1214 637.796 66.9146C635.981 69.7078 633.583 72.0747 630.766 73.8526" stroke="#233D63" stroke-miterlimit="10" stroke-linecap="round"/>
<path d="M619.62 31.2979V52.6473L634.5 37.7675" stroke="#233D63" stroke-miterlimit="10" stroke-linecap="round"/>
<path d="M597.085 63.0654L618.45 55.2603L628.953 74.8892" stroke="#233D63" stroke-miterlimit="10" stroke-linecap="round"/>
<path d="M630.775 73.8468L620.348 54.337L635.82 39.1577" stroke="#233D63" stroke-miterlimit="10" stroke-linecap="round"/>
<path d="M617.952 31.2729V45.566V47.8305V50.2234V53.1542L596.514 61.5094" stroke="#233D63" stroke-miterlimit="10" stroke-linecap="round"/>
<path d="M722.172 97.7754L687.388 118.669L699.01 97.7754" stroke="#233D63" stroke-miterlimit="10" stroke-linecap="round"/>
<path d="M619.62 31.9214C620.152 33.0246 620.754 33.4677 621.276 33.6419C622.303 33.9812 623.006 33.2905 624.085 33.8345C625.307 34.4671 625.103 35.7475 626.307 36.4474C627.407 37.083 628.446 36.5238 629.406 36.5421C630.365 36.5604 631.563 37.1778 632.954 39.2925" stroke="#233D63" stroke-miterlimit="10" stroke-linecap="round"/>
<path d="M619.62 35.4839C619.858 35.7236 620.149 35.9046 620.47 36.0126C621.49 36.3518 622.196 35.6611 623.272 36.2082C624.519 36.8377 624.29 38.1182 625.5 38.818C626.594 39.4598 627.639 38.8975 628.593 38.9158C629.405 38.9311 630.38 39.3712 631.493 40.7769" stroke="#233D63" stroke-miterlimit="10" stroke-linecap="round"/>
<path d="M619.62 38.3662H619.657C620.684 38.7024 621.386 38.0117 622.462 38.5587C623.7 39.1883 623.477 40.4688 624.687 41.1686C625.784 41.8073 626.826 41.248 627.783 41.2664C628.409 41.2664 629.134 41.5445 629.943 42.3085" stroke="#233D63" stroke-miterlimit="10" stroke-linecap="round"/>
<path d="M619.62 40.8354C620.28 40.7957 620.843 40.5298 621.649 40.9363C622.896 41.5475 622.667 42.8463 623.874 43.5461C624.971 44.1848 626.013 43.6225 626.97 43.6439C627.42 43.6602 627.86 43.7894 628.247 44.0198" stroke="#233D63" stroke-miterlimit="10" stroke-linecap="round"/>
<path d="M619.62 43.1003C620.038 43.0381 620.466 43.1075 620.843 43.2989C622.089 43.9285 621.86 45.2089 623.07 45.9118C624.167 46.5505 625.21 45.9882 626.163 46.0096H626.261" stroke="#233D63" stroke-miterlimit="10" stroke-linecap="round"/>
<path d="M619.62 45.5083C619.761 45.5447 619.897 45.597 620.027 45.6642C621.273 46.2937 621.044 47.5742 622.251 48.2771C622.689 48.5293 623.195 48.6363 623.697 48.5827" stroke="#233D63" stroke-miterlimit="10" stroke-linecap="round"/>
<path d="M619.62 48.2925C620.424 48.9679 620.384 50.0252 621.454 50.6395L621.576 50.7067" stroke="#233D63" stroke-miterlimit="10" stroke-linecap="round"/>
<path d="M619.92 52.3412C619.805 52.1813 619.703 52.0127 619.614 51.8369" stroke="#233D63" stroke-miterlimit="10" stroke-linecap="round"/>
<path d="M315.654 15.1982H210.832V48.8971H315.654V15.1982Z" stroke="#233D63" stroke-miterlimit="10" stroke-linecap="round"/>
<path d="M222.529 30.6436L216.783 41.4344" stroke="#233D63" stroke-miterlimit="10" stroke-linecap="round"/>
<path d="M252.532 27.4253L239.844 41.6328" stroke="#233D63" stroke-miterlimit="10" stroke-linecap="round"/>
<path d="M279.75 36.3709L315.655 19.0279L322.195 15.874" stroke="#233D63" stroke-miterlimit="10" stroke-linecap="round"/>
<path d="M276.873 36.4254L255.139 26.915" stroke="#233D63" stroke-miterlimit="10" stroke-linecap="round"/>
<path d="M237.659 41.7891L224.604 30.2251" stroke="#233D63" stroke-miterlimit="10" stroke-linecap="round"/>
<path d="M223.341 30.8759C224.195 30.8759 224.888 30.1836 224.888 29.3296C224.888 28.4755 224.195 27.7832 223.341 27.7832C222.487 27.7832 221.795 28.4755 221.795 29.3296C221.795 30.1836 222.487 30.8759 223.341 30.8759Z" stroke="#233D63" stroke-miterlimit="10"/>
<path d="M216.056 44.3466C216.91 44.3466 217.602 43.6543 217.602 42.8003C217.602 41.9462 216.91 41.2539 216.056 41.2539C215.202 41.2539 214.51 41.9462 214.51 42.8003C214.51 43.6543 215.202 44.3466 216.056 44.3466Z" stroke="#233D63" stroke-miterlimit="10"/>
<path d="M238.826 44.3466C239.68 44.3466 240.372 43.6543 240.372 42.8003C240.372 41.9462 239.68 41.2539 238.826 41.2539C237.972 41.2539 237.279 41.9462 237.279 42.8003C237.279 43.6543 237.972 44.3466 238.826 44.3466Z" stroke="#233D63" stroke-miterlimit="10"/>
<path d="M253.685 27.9418C254.539 27.9418 255.231 27.2495 255.231 26.3955C255.231 25.5414 254.539 24.8491 253.685 24.8491C252.831 24.8491 252.139 25.5414 252.139 26.3955C252.139 27.2495 252.831 27.9418 253.685 27.9418Z" stroke="#233D63" stroke-miterlimit="10"/>
<path d="M278.322 38.5131C279.176 38.5131 279.868 37.8208 279.868 36.9668C279.868 36.1127 279.176 35.4204 278.322 35.4204C277.468 35.4204 276.775 36.1127 276.775 36.9668C276.775 37.8208 277.468 38.5131 278.322 38.5131Z" stroke="#233D63" stroke-miterlimit="10"/>
<path d="M323.588 16.7446C324.442 16.7446 325.135 16.0522 325.135 15.1982C325.135 14.3442 324.442 13.6519 323.588 13.6519C322.734 13.6519 322.042 14.3442 322.042 15.1982C322.042 16.0522 322.734 16.7446 323.588 16.7446Z" stroke="#233D63" stroke-miterlimit="10"/>
<path d="M542.104 266.102C542.235 265.008 542.382 263.962 542.547 262.92C542.965 260.287 543.544 257.681 544.28 255.118C545.722 250.091 547.299 246.36 547.317 240.144C547.317 237.066 547.345 232.25 545.2 227.51C544.531 226.017 543.675 224.614 542.654 223.336C538.77 218.446 533.574 216.728 530.301 215.64C527.594 214.739 525.231 214.387 522.093 214.213C521.564 214.183 520.999 214.158 520.412 214.137C519.083 214.085 517.604 214.054 515.92 214.018C510.837 213.933 505.754 214.193 500.707 214.797C499.953 214.883 499.179 214.978 498.384 215.084C492.883 215.815 489.846 216.218 486.346 217.26C477.004 220.041 470.761 225.469 464.27 231.235C453.775 240.55 451.74 246.106 445.897 245.819C444.369 245.742 441.365 244.508 435.366 242.038C431.069 240.272 428.337 238.967 426.179 237.986C420.254 235.282 415.611 233.164 411.874 231.843C407.742 230.386 404.726 229.9 402.306 230.691C401.873 230.831 401.455 231.013 401.059 231.235C398.709 232.552 396.78 235.26 397.006 237.717C397.033 238.022 397.092 238.323 397.184 238.616C397.844 240.755 400.075 242.31 401.768 243.282C402.214 243.536 402.617 243.753 402.95 243.927C433.685 260.216 437.04 265.882 447.507 264.182C460.529 262.062 466.167 251.213 470.47 253.92C472.121 254.959 473.444 257.893 470.538 273.366C470.455 273.806 470.373 274.24 470.287 274.671C470.232 274.958 470.174 275.242 470.119 275.526C468.896 281.639 467.54 287.008 466.235 291.723C466.116 292.127 466.006 292.527 465.899 292.924C462.87 303.718 460.279 310.918 460.789 315.539C460.841 316.048 460.944 316.551 461.094 317.04C461.354 317.9 461.812 318.688 462.433 319.338L462.528 319.432L462.577 319.481C462.656 319.558 462.739 319.634 462.824 319.701C462.867 319.741 462.912 319.777 462.959 319.811C463.004 319.845 463.05 319.885 463.099 319.918L463.203 319.989C463.317 320.064 463.434 320.133 463.555 320.197L463.643 320.242L463.756 320.297L463.875 320.346L464.065 320.426C464.129 320.45 464.196 320.475 464.267 320.496L464.419 320.548L464.725 320.634L464.924 320.685L465.101 320.728C465.382 320.789 465.691 320.847 466.018 320.902L466.192 320.93C466.336 320.954 466.498 320.97 466.635 320.988L467.1 321.04L467.659 321.098C468.511 321.174 469.492 321.245 470.697 321.312" stroke="black" stroke-miterlimit="10"/>
<path d="M616.329 403.85C627.731 411.285 630.928 424.019 645.092 425.926C661.005 428.066 668.389 413.522 683.21 416.96C695.129 419.71 699.493 431.229 705.629 438.258C716.784 451.038 743.466 460.148 813.251 440.501" stroke="#233D63" stroke-miterlimit="10"/>
<path d="M586.832 401.931C584.998 401.931 582.186 402.236 579.943 404.116C576.41 407.062 577.697 411.022 574.748 412.743C571.472 414.653 568.156 410.76 562.829 411.792C559.162 412.508 556.565 415.176 554.979 417.269" stroke="#233D63" stroke-miterlimit="10"/>
<path d="M0.107422 472.274C71.5117 484.77 97.1457 472.998 106.962 459.158C112.356 451.542 115.546 439.648 127.113 435.696C141.51 430.782 150.339 444.504 165.94 440.763C174.457 438.725 178.47 433.056 182.721 427.011" stroke="#233D63" stroke-miterlimit="10"/>
<path d="M255.246 421.544C239.407 413.263 227.195 409.751 217.715 409.015" stroke="#233D63" stroke-miterlimit="10"/>
<path d="M350.695 157.683C353.4 156.36 351.352 152.149 348.639 153.475C345.925 154.801 347.985 158.997 350.695 157.683Z" fill="#010101"/>
<path d="M334.181 157.937C336.888 156.614 334.841 152.406 332.127 153.732C329.413 155.058 331.473 159.263 334.181 157.937Z" fill="#010101"/>
<path d="M349.941 155.375C350.273 155.375 350.543 155.106 350.543 154.773C350.543 154.441 350.273 154.171 349.941 154.171C349.608 154.171 349.339 154.441 349.339 154.773C349.339 155.106 349.608 155.375 349.941 155.375Z" fill="white"/>
<path d="M333.603 155.547C333.936 155.547 334.205 155.277 334.205 154.945C334.205 154.612 333.936 154.343 333.603 154.343C333.271 154.343 333.001 154.612 333.001 154.945C333.001 155.277 333.271 155.547 333.603 155.547Z" fill="white"/>
<path d="M342.117 161.075C342.337 161.503 342.536 161.937 342.728 162.377C342.921 162.817 343.092 163.257 343.257 163.703C343.422 164.15 343.562 164.596 343.737 165.045C343.911 165.494 344.042 165.962 344.164 166.405L344.222 166.61L344.054 166.692C343.823 166.805 343.581 166.896 343.333 166.964C343.089 167.034 342.84 167.084 342.588 167.114C342.337 167.14 342.084 167.14 341.833 167.114C341.584 167.087 341.341 167.026 341.108 166.934C341.587 166.968 342.068 166.92 342.529 166.79C342.756 166.727 342.978 166.652 343.196 166.564C343.405 166.474 343.609 166.372 343.807 166.258L343.694 166.546C343.523 166.102 343.388 165.65 343.217 165.201C343.046 164.752 342.911 164.284 342.792 163.841C342.673 163.398 342.529 162.924 342.413 162.463C342.297 162.001 342.199 161.549 342.117 161.075Z" fill="#010101"/>
<path d="M335.642 170.527C336.102 170.938 336.583 171.324 337.084 171.683C337.573 172.044 338.083 172.376 338.612 172.676C339.126 172.971 339.664 173.223 340.22 173.428C340.761 173.632 341.325 173.767 341.901 173.828C342.467 173.895 343.041 173.877 343.603 173.776C344.17 173.666 344.722 173.484 345.244 173.235C346.32 172.667 347.31 171.946 348.181 171.096L348.223 171.129C347.46 172.112 346.517 172.942 345.446 173.574C344.9 173.877 344.315 174.101 343.707 174.24C343.093 174.365 342.465 174.394 341.842 174.329C340.603 174.16 339.42 173.706 338.386 173.003C337.347 172.32 336.413 171.489 335.614 170.537L335.642 170.527Z" fill="#010101"/>
<path d="M328.523 153.658C328.946 152.936 329.517 152.311 330.198 151.825C330.54 151.574 330.907 151.358 331.292 151.18C331.685 151.006 332.094 150.874 332.515 150.786C332.947 150.705 333.388 150.683 333.826 150.722C334.262 150.761 334.69 150.864 335.097 151.027C335.882 151.346 336.564 151.874 337.068 152.555L337.031 152.595C336.43 152.067 335.728 151.665 334.969 151.412C334.207 151.173 333.398 151.131 332.615 151.29C331.831 151.443 331.082 151.741 330.406 152.167C329.722 152.582 329.098 153.09 328.554 153.677L328.523 153.658Z" fill="#010101"/>
<path d="M345.302 151.464C345.972 150.965 346.741 150.614 347.557 150.434C347.971 150.336 348.394 150.28 348.819 150.266C349.252 150.259 349.685 150.3 350.109 150.388C350.535 150.483 350.946 150.635 351.331 150.84C351.718 151.047 352.071 151.311 352.38 151.623C352.98 152.225 353.403 152.981 353.602 153.808L353.553 153.832C353.205 153.111 352.717 152.467 352.117 151.937C351.508 151.42 350.779 151.065 349.996 150.904C349.215 150.74 348.41 150.72 347.621 150.846C346.83 150.964 346.058 151.187 345.326 151.51L345.302 151.464Z" fill="#010101"/>
<path d="M645.948 158.224C643.577 157.209 645.148 153.52 647.525 154.538C649.903 155.556 648.323 159.241 645.948 158.224Z" fill="#010101"/>
<path d="M660.085 157.729C657.713 156.714 659.281 153.025 661.662 154.043C664.042 155.061 662.459 158.743 660.085 157.729Z" fill="#010101"/>
<path d="M646.468 156.222C646.753 156.222 646.984 155.991 646.984 155.705C646.984 155.42 646.753 155.189 646.468 155.189C646.182 155.189 645.951 155.42 645.951 155.705C645.951 155.991 646.182 156.222 646.468 156.222Z" fill="white"/>
<path d="M660.449 155.66C660.734 155.66 660.966 155.429 660.966 155.143C660.966 154.858 660.734 154.627 660.449 154.627C660.164 154.627 659.933 154.858 659.933 155.143C659.933 155.429 660.164 155.66 660.449 155.66Z" fill="white"/>
<path d="M653.432 160.754C653.392 161.166 653.328 161.573 653.255 161.976C653.181 162.38 653.099 162.777 653.001 163.174C652.903 163.572 652.803 163.963 652.696 164.357C652.589 164.751 652.476 165.139 652.344 165.527L652.219 165.246C652.395 165.332 652.575 165.409 652.76 165.475C652.948 165.544 653.14 165.601 653.334 165.647C653.734 165.742 654.147 165.77 654.557 165.729C654.164 165.917 653.729 165.999 653.295 165.968C653.076 165.956 652.86 165.927 652.647 165.879C652.429 165.831 652.216 165.764 652.011 165.677L651.84 165.607L651.886 165.396C651.974 164.999 652.087 164.608 652.191 164.213C652.295 163.819 652.414 163.431 652.546 163.046C652.677 162.661 652.806 162.273 652.949 161.891C653.093 161.509 653.252 161.136 653.432 160.754Z" fill="#010101"/>
<path d="M659.419 168.59C658.905 169.556 658.203 170.408 657.353 171.096C656.922 171.456 656.45 171.763 655.947 172.013C655.432 172.261 654.885 172.437 654.321 172.536C653.748 172.629 653.164 172.629 652.592 172.536C652.029 172.423 651.488 172.223 650.987 171.943C650.034 171.384 649.233 170.6 648.652 169.66L648.692 169.623C649.388 170.422 650.229 171.082 651.171 171.567C651.644 171.796 652.149 171.957 652.668 172.044C653.188 172.117 653.717 172.111 654.236 172.025C655.277 171.839 656.261 171.412 657.108 170.778C657.968 170.161 658.732 169.421 659.376 168.581L659.419 168.59Z" fill="#010101"/>
<path d="M664.715 153.857C664.127 153.52 663.522 153.214 662.903 152.94C662.318 152.682 661.701 152.504 661.069 152.411C660.457 152.321 659.834 152.355 659.235 152.512C658.596 152.7 657.98 152.963 657.402 153.295L657.365 153.255C657.859 152.767 658.443 152.382 659.086 152.121C659.739 151.873 660.444 151.792 661.136 151.886C661.823 151.994 662.484 152.227 663.086 152.573C663.69 152.91 664.245 153.327 664.736 153.814L664.715 153.857Z" fill="#010101"/>
<path d="M650.272 152.717C649.572 152.643 648.9 152.588 648.246 152.585C647.612 152.577 646.98 152.653 646.366 152.811C645.768 152.967 645.208 153.241 644.719 153.618C644.206 154.042 643.743 154.524 643.341 155.055L643.295 155.024C643.556 154.381 643.944 153.797 644.435 153.307C644.937 152.821 645.554 152.471 646.229 152.289C646.902 152.119 647.602 152.074 648.292 152.157C648.979 152.232 649.654 152.4 650.296 152.656L650.272 152.717Z" fill="#010101"/>
</svg>
