<svg width="435" height="542" viewBox="0 0 435 542" fill="none" xmlns="http://www.w3.org/2000/svg">
<path d="M73.0059 315.149L73.4904 315.273L73.0059 315.149ZM387.968 153.965L388.344 154.295L387.968 153.965ZM293.577 64.7917C293.304 64.7542 293.052 64.9456 293.014 65.2192C292.977 65.4928 293.168 65.745 293.442 65.7825L293.577 64.7917ZM-141.321 507.321C-140.063 507.607 -138.768 507.874 -137.438 508.12L-137.257 507.136C-138.573 506.893 -139.855 506.629 -141.099 506.346L-141.321 507.321ZM-129.541 509.272C-126.987 509.55 -124.336 509.754 -121.599 509.871L-121.556 508.872C-124.272 508.755 -126.901 508.554 -129.433 508.277L-129.541 509.272ZM-113.611 509.969C-111.014 509.923 -108.354 509.8 -105.64 509.595L-105.715 508.598C-108.411 508.802 -111.051 508.923 -113.629 508.969L-113.611 509.969ZM-97.7263 508.776C-95.1438 508.437 -92.5206 508.023 -89.8623 507.528L-90.0453 506.545C-92.686 507.037 -95.2916 507.448 -97.8565 507.785L-97.7263 508.776ZM-82.0723 505.865C-79.5319 505.253 -76.9657 504.566 -74.3781 503.8L-74.6618 502.841C-77.2329 503.602 -79.7827 504.285 -82.3065 504.893L-82.0723 505.865ZM-66.7988 501.347C-64.3303 500.479 -61.8467 499.537 -59.352 498.518L-59.7302 497.592C-62.2095 498.605 -64.6776 499.541 -67.1306 500.404L-66.7988 501.347ZM-52.0532 495.325C-49.6797 494.218 -47.2995 493.038 -44.9159 491.783L-45.3817 490.898C-47.7511 492.146 -50.117 493.318 -52.4761 494.419L-52.0532 495.325ZM-37.9517 487.905C-35.6905 486.575 -33.429 485.176 -31.1699 483.703L-31.7159 482.866C-33.9621 484.329 -36.2105 485.721 -38.4585 487.043L-37.9517 487.905ZM-24.5991 479.208C-22.4764 477.685 -20.3582 476.095 -18.2468 474.437L-18.8645 473.65C-20.9645 475.3 -23.0711 476.881 -25.182 478.395L-24.5991 479.208ZM-12.0994 469.393C-10.1098 467.69 -8.12832 465.923 -6.15695 464.089L-6.83791 463.357C-8.7993 465.181 -10.7706 466.939 -12.7497 468.634L-12.0994 469.393ZM-0.417739 458.535C1.42392 456.681 3.25491 454.766 5.07356 452.79L4.33772 452.113C2.52763 454.08 0.705419 455.985 -1.12726 457.83L-0.417739 458.535ZM10.3391 446.852C12.0423 444.859 13.7329 442.809 15.4095 440.701L14.6269 440.079C12.9575 442.178 11.2744 444.218 9.57893 446.202L10.3391 446.852ZM20.2725 434.367C21.8227 432.276 23.3594 430.132 24.8813 427.933L24.0591 427.364C22.5433 429.554 21.0129 431.689 19.4691 433.772L20.2725 434.367ZM29.3152 421.31C30.7404 419.108 32.1512 416.856 33.5464 414.552L32.6911 414.034C31.301 416.329 29.8955 418.573 28.4757 420.767L29.3152 421.31ZM37.5514 407.723C38.8519 405.432 40.1374 403.093 41.407 400.707L40.5242 400.237C39.2588 402.616 37.9777 404.946 36.6817 407.229L37.5514 407.723ZM45.0299 393.678C46.2017 391.331 47.3585 388.94 48.4996 386.505L47.5941 386.081C46.4565 388.509 45.3033 390.892 44.1353 393.231L45.0299 393.678ZM51.7877 379.264C52.8403 376.871 53.878 374.438 54.9004 371.963L53.9761 371.581C52.9566 374.049 51.9219 376.475 50.8724 378.861L51.7877 379.264ZM57.8666 364.553C58.8097 362.122 59.7382 359.652 60.6517 357.144L59.7121 356.802C58.801 359.304 57.8748 361.767 56.9343 364.192L57.8666 364.553ZM63.3111 349.608C64.1542 347.141 64.983 344.639 65.7971 342.101L64.8449 341.796C64.0327 344.328 63.2058 346.824 62.3649 349.285L63.3111 349.608ZM68.166 334.475C68.9179 331.974 69.6559 329.44 70.3795 326.872L69.417 326.601C68.6949 329.163 67.9585 331.692 67.2083 334.187L68.166 334.475ZM72.4748 319.189C72.8169 317.892 73.1555 316.587 73.4904 315.273L72.5214 315.026C72.1872 316.337 71.8493 317.64 71.5079 318.934L72.4748 319.189ZM73.4904 315.273C73.8286 313.947 74.1597 312.632 74.4839 311.33L73.5136 311.088C73.1898 312.389 72.8591 313.701 72.5214 315.026L73.4904 315.273ZM76.3475 303.655C76.9415 301.144 77.5086 298.679 78.0494 296.26L77.0735 296.041C76.5336 298.457 75.9674 300.918 75.3743 303.425L76.3475 303.655ZM79.7325 288.476C80.2727 285.888 80.781 283.355 81.2585 280.878L80.2766 280.689C79.8001 283.161 79.2928 285.688 78.7536 288.272L79.7325 288.476ZM82.6634 273.244C83.1277 270.591 83.5542 268.006 83.9444 265.488L82.9561 265.335C82.5671 267.847 82.1416 270.425 81.6783 273.072L82.6634 273.244ZM85.0416 257.87C85.3988 255.178 85.7111 252.569 85.9804 250.041L84.986 249.936C84.7177 252.454 84.4064 255.054 84.0503 257.739L85.0416 257.87ZM86.6906 242.317C86.8962 239.631 87.0486 237.048 87.1502 234.565L86.1511 234.524C86.0499 236.994 85.8983 239.565 85.6935 242.241L86.6906 242.317ZM87.3055 226.672C87.2968 223.954 87.2196 221.375 87.0783 218.931L86.08 218.988C86.2201 221.413 86.2969 223.974 86.3055 226.676L87.3055 226.672ZM86.3737 211.247C86.0139 208.464 85.5557 205.897 85.0089 203.534L84.0347 203.76C84.5733 206.087 85.0259 208.622 85.3819 211.375L86.3737 211.247ZM82.7168 195.999C81.6433 193.26 80.4079 190.919 79.0392 188.947L78.2178 189.518C79.5359 191.416 80.7365 193.686 81.7857 196.364L82.7168 195.999ZM73.5192 183.351C71.1867 181.772 68.6709 180.871 66.0673 180.556L65.9473 181.549C68.3968 181.845 70.7609 182.691 72.9586 184.179L73.5192 183.351ZM58.1617 181.252C55.723 181.935 53.2935 183.022 50.9413 184.434L51.4561 185.292C53.743 183.918 56.0906 182.871 58.4313 182.215L58.1617 181.252ZM44.628 189.165C42.7196 190.898 40.9167 192.837 39.2664 194.929L40.0517 195.549C41.6689 193.498 43.4342 191.6 45.3004 189.905L44.628 189.165ZM34.8997 201.477C33.6175 203.781 32.5249 206.188 31.6672 208.653L32.6117 208.982C33.4493 206.575 34.5176 204.22 35.7735 201.963L34.8997 201.477ZM29.8246 216.322C29.4796 218.958 29.439 221.606 29.7553 224.213L30.748 224.093C30.4427 221.576 30.481 219.012 30.8162 216.451L29.8246 216.322ZM31.8191 231.834C32.8447 234.177 34.2373 236.429 36.0386 238.544L36.7999 237.896C35.0617 235.855 33.7213 233.686 32.7352 231.433L31.8191 231.834ZM41.8251 243.817C42.8799 244.574 44.0098 245.3 45.2178 245.993L45.7152 245.125C44.5355 244.449 43.4342 243.741 42.4081 243.005L41.8251 243.817ZM45.2178 245.993C46.3391 246.636 47.5117 247.247 48.7336 247.828L49.1628 246.924C47.9626 246.354 46.8129 245.755 45.7152 245.125L45.2178 245.993ZM56.2167 250.806C58.6601 251.617 61.2429 252.339 63.9547 252.974L64.1827 252C61.4972 251.371 58.9437 250.658 56.5318 249.857L56.2167 250.806ZM71.8261 254.519C74.387 254.933 77.0391 255.285 79.7758 255.574L79.881 254.58C77.1611 254.292 74.5273 253.943 71.986 253.532L71.8261 254.519ZM87.7789 256.232C90.3974 256.39 93.0804 256.499 95.823 256.56L95.8452 255.56C93.1145 255.499 90.4441 255.391 87.8391 255.234L87.7789 256.232ZM103.817 256.605C106.432 256.579 109.092 256.513 111.796 256.409L111.757 255.41C109.063 255.513 106.412 255.579 103.807 255.605L103.817 256.605ZM119.806 256C122.445 255.832 125.118 255.631 127.824 255.398L127.738 254.401C125.04 254.634 122.374 254.834 119.743 255.002L119.806 256ZM135.75 254.631C138.378 254.35 141.033 254.041 143.71 253.704L143.585 252.712C140.914 253.048 138.266 253.357 135.644 253.637L135.75 254.631ZM151.662 252.631C154.272 252.255 156.901 251.855 159.547 251.43L159.388 250.443C156.748 250.867 154.124 251.266 151.519 251.641L151.662 252.631ZM167.456 250.098C170.064 249.637 172.686 249.155 175.319 248.65L175.13 247.668C172.502 248.172 169.886 248.654 167.282 249.113L167.456 250.098ZM183.163 247.09C185.769 246.552 188.385 245.994 191.007 245.416L190.791 244.439C188.174 245.016 185.563 245.574 182.961 246.11L183.163 247.09ZM198.791 243.645C201.383 243.038 203.979 242.412 206.578 241.767L206.337 240.796C203.743 241.44 201.15 242.065 198.563 242.672L198.791 243.645ZM214.327 239.793C216.903 239.119 219.481 238.428 222.056 237.72L221.791 236.756C219.219 237.463 216.646 238.153 214.074 238.826L214.327 239.793ZM229.759 235.551C232.321 234.812 234.879 234.057 237.433 233.286L237.144 232.329C234.594 233.098 232.04 233.852 229.481 234.59L229.759 235.551ZM245.076 230.927C247.623 230.123 250.163 229.304 252.694 228.47L252.381 227.52C249.854 228.353 247.318 229.171 244.775 229.973L245.076 230.927ZM260.277 225.917C262.804 225.048 265.32 224.165 267.823 223.267L267.485 222.326C264.987 223.222 262.475 224.104 259.952 224.971L260.277 225.917ZM275.345 220.513C277.847 219.577 280.332 218.628 282.8 217.666L282.437 216.734C279.973 217.695 277.492 218.642 274.995 219.576L275.345 220.513ZM290.256 214.697C292.739 213.687 295.201 212.664 297.64 211.628L297.249 210.708C294.815 211.741 292.357 212.763 289.879 213.771L290.256 214.697ZM304.975 208.445C307.437 207.352 309.873 206.247 312.28 205.129L311.859 204.222C309.458 205.337 307.027 206.44 304.569 207.531L304.975 208.445ZM319.485 201.706C321.912 200.524 324.306 199.331 326.664 198.126L326.209 197.235C323.857 198.437 321.469 199.628 319.047 200.806L319.485 201.706ZM333.764 194.401C336.132 193.126 338.457 191.839 340.737 190.542L340.242 189.673C337.969 190.966 335.651 192.249 333.29 193.521L333.764 194.401ZM347.664 186.48C349.991 185.074 352.262 183.657 354.476 182.228L353.933 181.388C351.729 182.811 349.466 184.223 347.147 185.625L347.664 186.48ZM361.12 177.785C363.345 176.242 365.499 174.687 367.578 173.124L366.977 172.324C364.909 173.88 362.765 175.427 360.55 176.963L361.12 177.785ZM373.91 168.136C376.029 166.384 378.051 164.621 379.969 162.849L379.291 162.115C377.387 163.873 375.379 165.624 373.272 167.365L373.91 168.136ZM385.69 157.21C386.607 156.241 387.492 155.269 388.344 154.295L387.591 153.636C386.749 154.6 385.872 155.562 384.963 156.523L385.69 157.21ZM388.344 154.295C389.292 153.211 390.186 152.137 391.026 151.073L390.241 150.454C389.412 151.504 388.529 152.564 387.591 153.636L388.344 154.295ZM395.709 144.368C397.248 141.825 398.475 139.342 399.409 136.92L398.476 136.56C397.565 138.922 396.365 141.352 394.853 143.85L395.709 144.368ZM401.489 128.912C401.861 126.051 401.81 123.288 401.378 120.622L400.39 120.782C400.807 123.351 400.857 126.017 400.497 128.783L401.489 128.912ZM398.886 112.712C397.73 110.276 396.246 107.94 394.481 105.701L393.695 106.321C395.42 108.507 396.862 110.78 397.982 113.141L398.886 112.712ZM388.82 99.6764C386.85 97.881 384.695 96.1574 382.384 94.5045L381.802 95.318C384.086 96.9508 386.209 98.6498 388.146 100.415L388.82 99.6764ZM375.487 90.039C373.173 88.6751 370.753 87.3664 368.247 86.112L367.799 87.0062C370.287 88.2515 372.687 89.5494 374.979 90.9005L375.487 90.039ZM360.805 82.6475C358.319 81.5693 355.774 80.5378 353.186 79.5525L352.83 80.4871C355.405 81.4674 357.936 82.4932 360.407 83.5649L360.805 82.6475ZM345.462 76.7865C342.875 75.9148 340.262 75.0863 337.637 74.3004L337.351 75.2583C339.964 76.0412 342.567 76.8663 345.142 77.7341L345.462 76.7865ZM329.738 72.0675C327.076 71.358 324.417 70.6915 321.778 70.0674L321.548 71.0406C324.178 71.6625 326.828 72.3268 329.481 73.0338L329.738 72.0675ZM313.774 68.289C311.04 67.7199 308.345 67.1977 305.708 66.7218L305.531 67.7058C308.159 68.1802 310.845 68.7008 313.57 69.2681L313.774 68.289ZM297.621 65.3762C296.249 65.1676 294.9 64.9728 293.577 64.7917L293.442 65.7825C294.759 65.9629 296.103 66.157 297.47 66.3649L297.621 65.3762Z" fill="#FFBC48"/>
<path d="M289.729 48.1819C287.895 46.874 284.237 50.4483 272.172 58.7852C264.062 64.3883 261.813 65.4555 262.026 67.2794C262.306 69.6747 268.25 71.3079 280.109 74.4666C289.266 76.8991 291.66 76.9608 292.009 76.1736C292.331 75.4586 290.656 74.7482 289.395 72.5541C287.46 69.1859 288.638 66.0325 289.642 57.3293C290.315 51.6466 290.622 48.8174 289.729 48.1819Z" stroke="#FFBC48" stroke-miterlimit="10"/>
<path d="M288.847 68.7259L294.195 64.8838L289.74 61.6717" stroke="#FFBC48" stroke-miterlimit="10" stroke-linecap="round"/>
</svg>
