<svg width="450" height="502" viewBox="0 0 450 502" fill="none" xmlns="http://www.w3.org/2000/svg">
<path d="M373.17 292.482L372.698 292.647L373.17 292.482ZM45.4642 159.104L45.1177 159.464L45.4642 159.104ZM131.8 62.1106C132.069 62.0496 132.337 62.2185 132.398 62.4879C132.459 62.7572 132.29 63.0249 132.021 63.0859L131.8 62.1106ZM603.294 465.424C602.066 465.818 600.799 466.196 599.495 466.555L599.229 465.591C600.52 465.235 601.774 464.862 602.989 464.472L603.294 465.424ZM591.727 468.385C589.207 468.883 586.583 469.315 583.866 469.668L583.737 468.677C586.433 468.326 589.034 467.898 591.533 467.404L591.727 468.385ZM575.917 470.456C573.325 470.634 570.665 470.742 567.943 470.772L567.932 469.772C570.635 469.742 573.276 469.635 575.848 469.458L575.917 470.456ZM559.988 470.639C557.386 470.525 554.737 470.338 552.046 470.075L552.143 469.08C554.816 469.341 557.448 469.526 560.032 469.64L559.988 470.639ZM544.141 469.091C541.558 468.701 538.942 468.238 536.297 467.699L536.497 466.719C539.125 467.255 541.724 467.714 544.291 468.102L544.141 469.091ZM528.535 465.909C526 465.257 523.445 464.533 520.871 463.734L521.168 462.779C523.726 463.574 526.265 464.293 528.784 464.941L528.535 465.909ZM513.324 461.183C510.864 460.285 508.391 459.315 505.907 458.271L506.295 457.349C508.763 458.387 511.222 459.351 513.667 460.244L513.324 461.183ZM498.634 455.008C496.267 453.879 493.893 452.68 491.515 451.409L491.987 450.527C494.351 451.791 496.711 452.983 499.065 454.106L498.634 455.008ZM484.58 447.497C482.334 446.163 480.087 444.763 477.84 443.293L478.387 442.456C480.622 443.918 482.857 445.311 485.091 446.637L484.58 447.497ZM471.28 438.799C469.15 437.274 467.024 435.684 464.901 434.028L465.517 433.24C467.628 434.887 469.744 436.469 471.862 437.986L471.28 438.799ZM458.704 428.99C456.709 427.302 454.719 425.553 452.737 423.741L453.412 423.003C455.385 424.806 457.365 426.547 459.35 428.227L458.704 428.99ZM446.978 418.28C445.109 416.442 443.248 414.546 441.396 412.59L442.121 411.902C443.966 413.849 445.819 415.737 447.679 417.567L446.978 418.28ZM436.004 406.7C434.279 404.75 432.562 402.747 430.856 400.688L431.626 400.05C433.326 402.1 435.035 404.096 436.753 406.037L436.004 406.7ZM425.867 394.472C424.257 392.402 422.657 390.28 421.068 388.105L421.875 387.515C423.458 389.682 425.052 391.796 426.656 393.858L425.867 394.472ZM416.488 381.647C414.995 379.477 413.512 377.259 412.041 374.991L412.88 374.447C414.346 376.707 415.824 378.918 417.312 381.08L416.488 381.647ZM407.824 368.301C406.454 366.064 405.095 363.782 403.748 361.455L404.614 360.954C405.957 363.274 407.311 365.549 408.677 367.779L407.824 368.301ZM399.847 354.524C398.592 352.231 397.348 349.897 396.115 347.52L397.003 347.059C398.232 349.43 399.472 351.758 400.724 354.044L399.847 354.524ZM392.52 340.394C391.371 338.053 390.232 335.673 389.106 333.253L390.012 332.831C391.136 335.244 392.271 337.618 393.418 339.953L392.52 340.394ZM385.805 325.975C384.752 323.59 383.71 321.169 382.68 318.71L383.602 318.324C384.63 320.776 385.67 323.192 386.72 325.571L385.805 325.975ZM379.661 311.317C378.696 308.891 377.742 306.43 376.8 303.934L377.735 303.581C378.676 306.071 379.628 308.527 380.591 310.948L379.661 311.317ZM374.049 296.461C373.596 295.198 373.146 293.927 372.698 292.647L373.643 292.317C374.089 293.594 374.538 294.863 374.99 296.123L374.049 296.461ZM372.698 292.647C372.247 291.355 371.804 290.074 371.368 288.804L372.314 288.48C372.749 289.748 373.192 291.027 373.643 292.317L372.698 292.647ZM368.849 281.32C368.04 278.869 367.262 276.462 366.514 274.099L367.468 273.797C368.214 276.156 368.991 278.559 369.798 281.006L368.849 281.32ZM364.165 266.489C363.404 263.957 362.678 261.478 361.989 259.051L362.951 258.778C363.639 261.2 364.363 263.674 365.123 266.201L364.165 266.489ZM359.93 251.568C359.238 248.965 358.59 246.426 357.984 243.951L358.955 243.713C359.56 246.182 360.206 248.714 360.896 251.311L359.93 251.568ZM356.233 236.456C355.644 233.805 355.108 231.233 354.621 228.738L355.603 228.547C356.088 231.033 356.622 233.596 357.209 236.24L356.233 236.456ZM353.246 221.104C352.81 218.445 352.435 215.885 352.119 213.42L353.111 213.293C353.425 215.745 353.798 218.294 354.233 220.941L353.246 221.104ZM351.283 205.571C351.056 202.862 350.911 200.286 350.84 197.838L351.84 197.809C351.91 200.237 352.054 202.795 352.279 205.488L351.283 205.571ZM350.879 190.122C350.997 187.319 351.232 184.722 351.572 182.321L352.562 182.461C352.227 184.826 351.995 187.391 351.878 190.164L350.879 190.122ZM353.205 174.616C354.038 171.794 355.066 169.355 356.26 167.273L357.127 167.77C355.978 169.775 354.978 172.141 354.164 174.899L353.205 174.616ZM361.276 161.221C363.463 159.446 365.892 158.331 368.458 157.793L368.664 158.771C366.249 159.278 363.967 160.325 361.906 161.997L361.276 161.221ZM376.395 157.803C378.883 158.273 381.397 159.146 383.863 160.35L383.424 161.248C381.027 160.078 378.598 159.237 376.209 158.786L376.395 157.803ZM390.561 164.517C392.612 166.079 394.576 167.855 396.401 169.797L395.672 170.482C393.883 168.578 391.961 166.84 389.955 165.313L390.561 164.517ZM401.316 175.943C402.793 178.128 404.089 180.432 405.157 182.813L404.244 183.222C403.202 180.897 401.934 178.643 400.488 176.503L401.316 175.943ZM407.655 190.294C408.226 192.891 408.495 195.526 408.405 198.15L407.406 198.116C407.493 195.583 407.233 193.031 406.678 190.509L407.655 190.294ZM407.007 205.92C406.188 208.343 404.995 210.708 403.383 212.97L402.569 212.39C404.124 210.207 405.272 207.93 406.06 205.6L407.007 205.92ZM398.074 218.723C397.088 219.568 396.025 220.389 394.882 221.184L394.311 220.362C395.428 219.587 396.464 218.786 397.423 217.964L398.074 218.723ZM394.882 221.184C393.82 221.921 392.705 222.632 391.538 223.315L391.032 222.453C392.178 221.781 393.272 221.084 394.311 220.362L394.882 221.184ZM384.34 226.929C381.975 227.948 379.465 228.89 376.818 229.757L376.507 228.807C379.128 227.948 381.61 227.017 383.944 226.011L384.34 226.929ZM369.109 231.976C366.594 232.61 363.982 233.189 361.28 233.714L361.09 232.732C363.775 232.211 366.368 231.636 368.865 231.007L369.109 231.976ZM353.364 235.061C350.769 235.445 348.105 235.785 345.378 236.082L345.27 235.088C347.985 234.792 350.636 234.453 353.218 234.072L353.364 235.061ZM337.418 236.818C334.811 237.017 332.155 237.182 329.452 237.312L329.404 236.313C332.097 236.183 334.744 236.019 337.341 235.821L337.418 236.818ZM321.436 237.595C318.793 237.656 316.112 237.687 313.397 237.688L313.396 236.688C316.104 236.687 318.778 236.656 321.413 236.596L321.436 237.595ZM305.434 237.609C302.791 237.557 300.12 237.478 297.423 237.373L297.462 236.374C300.153 236.478 302.817 236.557 305.454 236.609L305.434 237.609ZM289.409 236.99C286.776 236.842 284.122 236.67 281.45 236.476L281.522 235.478C284.19 235.673 286.838 235.844 289.465 235.992L289.409 236.99ZM273.455 235.831C270.817 235.598 268.163 235.343 265.497 235.068L265.599 234.074C268.261 234.348 270.91 234.602 273.543 234.835L273.455 235.831ZM257.547 234.191C254.904 233.88 252.25 233.55 249.588 233.201L249.718 232.209C252.376 232.558 255.025 232.888 257.664 233.198L257.547 234.191ZM241.68 232.109C239.045 231.728 236.404 231.328 233.759 230.91L233.915 229.923C236.556 230.34 239.193 230.739 241.823 231.119L241.68 232.109ZM225.869 229.613C223.244 229.164 220.617 228.698 217.99 228.215L218.171 227.232C220.794 227.714 223.417 228.179 226.038 228.627L225.869 229.613ZM210.129 226.72C207.512 226.205 204.898 225.674 202.288 225.126L202.493 224.148C205.099 224.694 207.709 225.224 210.322 225.738L210.129 226.72ZM194.469 223.436C191.862 222.855 189.261 222.258 186.668 221.646L186.897 220.673C189.486 221.284 192.084 221.88 194.687 222.46L194.469 223.436ZM178.892 219.758C176.299 219.11 173.716 218.447 171.146 217.77L171.401 216.803C173.967 217.479 176.546 218.141 179.134 218.787L178.892 219.758ZM163.414 215.675C160.841 214.959 158.283 214.228 155.741 213.483L156.022 212.523C158.559 213.267 161.113 213.997 163.682 214.711L163.414 215.675ZM148.057 211.169C145.496 210.377 142.954 209.57 140.435 208.749L140.745 207.798C143.259 208.618 145.796 209.423 148.352 210.213L148.057 211.169ZM132.853 206.211C130.305 205.335 127.782 204.445 125.288 203.539L125.629 202.599C128.118 203.503 130.635 204.392 133.178 205.266L132.853 206.211ZM117.815 200.75C115.294 199.783 112.806 198.801 110.353 197.804L110.73 196.878C113.176 197.872 115.658 198.852 118.173 199.817L117.815 200.75ZM102.958 194.707C100.489 193.641 98.061 192.56 95.6775 191.464L96.0953 190.555C98.4714 191.648 100.892 192.726 103.354 193.788L102.958 194.707ZM88.4257 188.016C85.9861 186.816 83.6005 185.6 81.2723 184.368L81.74 183.484C84.059 184.711 86.436 185.923 88.8671 187.119L88.4257 188.016ZM74.2685 180.515C71.9187 179.17 69.6385 177.808 67.4323 176.429L67.9622 175.581C70.1569 176.952 72.4261 178.308 74.7654 179.648L74.2685 180.515ZM60.6938 172.007C58.4308 170.444 56.2641 168.863 54.2 167.263L54.8125 166.473C56.8611 168.06 59.0129 169.631 61.262 171.184L60.6938 172.007ZM48.0138 162.139C47.0161 161.253 46.0504 160.361 45.1177 159.464L45.8107 158.743C46.7337 159.631 47.6898 160.514 48.6782 161.392L48.0138 162.139ZM45.1177 159.464C44.0796 158.466 43.0968 157.474 42.168 156.486L42.8963 155.801C43.8132 156.776 44.7841 157.756 45.8107 158.743L45.1177 159.464ZM36.9234 150.211C35.1703 147.81 33.7336 145.442 32.5933 143.11L33.4917 142.67C34.6037 144.945 36.009 147.263 37.731 149.621L36.9234 150.211ZM29.8296 135.311C29.2123 132.494 29.0245 129.736 29.2246 127.043L30.2219 127.117C30.029 129.712 30.2095 132.373 30.8064 135.097L29.8296 135.311ZM31.0242 118.947C31.9655 116.42 33.2414 113.965 34.8072 111.582L35.6429 112.132C34.1132 114.459 32.8734 116.848 31.9613 119.297L31.0242 118.947ZM39.9264 105.091C41.7335 103.132 43.7315 101.229 45.892 99.3825L46.5417 100.143C44.4074 101.967 42.4385 103.843 40.6615 105.769L39.9264 105.091ZM52.3769 94.3381C54.5645 92.7794 56.8626 91.2666 59.2512 89.8004L59.7743 90.6526C57.4033 92.1081 55.1244 93.6084 52.9571 95.1525L52.3769 94.3381ZM66.3656 85.7061C68.7491 84.4172 71.1957 83.1698 73.6893 81.9646L74.1245 82.865C71.6435 84.064 69.2105 85.3046 66.8413 86.5857L66.3656 85.7061ZM81.1456 78.5417C83.6478 77.4499 86.1794 76.3988 88.7258 75.3892L89.0944 76.3188C86.5579 77.3245 84.0367 78.3712 81.5456 79.4583L81.1456 78.5417ZM96.4026 72.4824C98.9938 71.5456 101.585 70.6519 104.161 69.8023L104.474 70.7519C101.907 71.5987 99.3246 72.4893 96.7425 73.4228L96.4026 72.4824ZM111.981 67.3392C114.655 66.5361 117.295 65.7831 119.881 65.0812L120.143 66.0462C117.565 66.7459 114.934 67.4964 112.269 68.297L111.981 67.3392ZM127.822 63.0421C129.171 62.7158 130.498 62.4053 131.8 62.1106L132.021 63.0859C130.724 63.3795 129.401 63.689 128.057 64.0141L127.822 63.0421Z" fill="#FFBC48"/>
<path d="M134.948 45.3101C136.661 43.8488 140.614 47.0939 153.355 54.3575C161.918 59.2391 164.252 60.1081 164.197 61.9437C164.124 64.3542 158.344 66.4947 146.801 70.6658C137.889 73.8801 135.509 74.1484 135.093 73.3942C134.711 72.7097 136.318 71.8573 137.385 69.5625C139.022 66.0398 137.576 62.9998 135.824 54.416C134.663 48.8125 134.112 46.0205 134.948 45.3101Z" stroke="#FFBC48" stroke-miterlimit="10"/>
</svg>
