<svg width="106" height="86" viewBox="0 0 106 86" fill="none" xmlns="http://www.w3.org/2000/svg">
<path d="M103.061 34.5086C97.47 14.5143 83.6778 0 70.2712 0C69.1944 0 68.1186 0.0937291 67.0706 0.279059C66.4762 0.38344 65.9564 0.732798 65.6348 1.23979C65.3142 1.74998 65.2236 2.36988 65.3866 2.9493L68.1463 12.8208C68.4126 13.7741 69.3318 14.4185 70.2872 14.3748L70.5066 14.3705C75.4786 14.3705 84.5651 21.8221 89.1972 38.3835C89.3804 39.0407 89.5541 39.7128 89.7213 40.4136C84.5214 37.8403 78.3182 37.2449 72.7007 38.8096C60.028 42.3553 52.6042 55.5478 56.1467 68.2184C59.0183 78.4851 68.4627 85.6576 79.1138 85.6576C81.2834 85.6576 83.4499 85.3583 85.5535 84.7692C93.9104 82.4334 100.193 75.4953 103.246 65.2372C106.002 55.9824 105.932 44.7827 103.061 34.5086Z" fill="#FFBC48"/>
<path d="M15.005 0.00439453C13.9303 0.00439453 12.8535 0.0959936 11.8065 0.281323C11.2132 0.383574 10.6924 0.735063 10.3718 1.24206C10.0512 1.75225 9.96064 2.37214 10.1225 2.95156L12.8833 12.823C13.1496 13.7763 14.0517 14.4207 15.0242 14.377L15.2415 14.3728C20.2134 14.3728 29.301 21.8243 33.9332 38.3858C34.1174 39.0472 34.291 39.7193 34.4572 40.4159C29.2552 37.8426 23.0541 37.2472 17.4367 38.8118C4.76608 42.3576 -2.6599 55.5501 0.884801 68.2207C3.75635 78.4873 13.2007 85.6598 23.8519 85.6598C26.0215 85.6598 28.1879 85.3605 30.2926 84.7715C38.6484 82.4357 44.9315 75.4976 47.9852 65.2394C50.7396 55.9847 50.6714 44.7839 47.7988 34.5088C42.2048 14.5166 28.4148 0.00439453 15.005 0.00439453Z" fill="#FFBC48"/>
</svg>
